<svg xmlns="http://www.w3.org/2000/svg" viewBox="0 0 512 512">
  <!-- Cycle 5A (from 33): Refine the smile — try closed-eye happy expression
       instead (^_^ style). One eye normal, one slightly squinted.
       Moon's eyes slightly bigger for more expression at small sizes.
       Test: does asymmetric expression add charm? -->
  <defs>
    <radialGradient id="body" cx="36%" cy="32%" r="58%">
      <stop offset="0%" stop-color="#6898be"/>
      <stop offset="50%" stop-color="#5282a8"/>
      <stop offset="100%" stop-color="#3e6c92"/>
    </radialGradient>
    <radialGradient id="spec" cx="28%" cy="24%" r="16%">
      <stop offset="0%" stop-color="white" stop-opacity="0.28"/>
      <stop offset="100%" stop-color="white" stop-opacity="0"/>
    </radialGradient>
    <radialGradient id="moon-f" cx="36%" cy="32%" r="58%">
      <stop offset="0%" stop-color="#7cb2d4"/>
      <stop offset="50%" stop-color="#669cc0"/>
      <stop offset="100%" stop-color="#5086aa"/>
    </radialGradient>
    <radialGradient id="moon-spec" cx="28%" cy="24%" r="18%">
      <stop offset="0%" stop-color="white" stop-opacity="0.26"/>
      <stop offset="100%" stop-color="white" stop-opacity="0"/>
    </radialGradient>
    <radialGradient id="moon-shd" cx="50%" cy="50%" r="50%">
      <stop offset="0%" stop-color="#2a4a6a" stop-opacity="0.24"/>
      <stop offset="70%" stop-color="#2a4a6a" stop-opacity="0.06"/>
      <stop offset="100%" stop-color="#2a4a6a" stop-opacity="0"/>
    </radialGradient>
    <radialGradient id="arm" cx="36%" cy="34%" r="54%">
      <stop offset="0%" stop-color="#5888ae"/>
      <stop offset="100%" stop-color="#3e688c"/>
    </radialGradient>
    <radialGradient id="leg" cx="40%" cy="32%" r="54%">
      <stop offset="0%" stop-color="#5282a4"/>
      <stop offset="100%" stop-color="#3c6e8e"/>
    </radialGradient>
    <radialGradient id="gshd" cx="50%" cy="50%" r="50%">
      <stop offset="0%" stop-color="#000" stop-opacity="0.12"/>
      <stop offset="100%" stop-color="#000" stop-opacity="0"/>
    </radialGradient>
  </defs>
  <g id="icon">
    <ellipse cx="264" cy="480" rx="118" ry="12" fill="url(#gshd)"/>
    <rect x="214" y="414" width="24" height="36" rx="12" fill="url(#leg)"/>
    <rect x="276" y="414" width="24" height="36" rx="12" fill="url(#leg)"/>
    <ellipse cx="226" cy="452" rx="18" ry="10" fill="#3c6e8e"/>
    <ellipse cx="288" cy="452" rx="18" ry="10" fill="#3c6e8e"/>
    <circle cx="106" cy="284" r="34" fill="url(#arm)"/>
    <circle cx="406" cy="284" r="34" fill="url(#arm)"/>
    <circle cx="256" cy="280" r="148" fill="url(#body)"/>
    <circle cx="256" cy="280" r="148" fill="url(#spec)"/>
    <ellipse cx="350" cy="188" rx="32" ry="28" fill="url(#moon-shd)" transform="rotate(15 350 188)"/>
    <!-- Left eye — normal, looking at moon -->
    <circle cx="218" cy="262" r="28" fill="white"/>
    <circle cx="224" cy="258" r="14" fill="#12202e"/>
    <circle cx="230" cy="252" r="6" fill="white"/>
    <!-- Right eye — slightly squinted happy (smaller, arc bottom) -->
    <circle cx="294" cy="260" r="28" fill="white"/>
    <circle cx="300" cy="256" r="14" fill="#12202e"/>
    <circle cx="306" cy="250" r="6" fill="white"/>
    <path d="M272,272 Q294,280 316,272" fill="white" opacity="0.9"/>
    <!-- Smile -->
    <path d="M240,310 Q258,324 276,310" fill="none" stroke="white" stroke-width="4" stroke-linecap="round" opacity="0.5"/>
    <!-- Moon — overlapping -->
    <circle cx="378" cy="154" r="54" fill="url(#moon-f)"/>
    <circle cx="378" cy="154" r="54" fill="url(#moon-spec)"/>
    <!-- Moon eyes — bigger (11r) -->
    <circle cx="366" cy="148" r="11" fill="white"/>
    <circle cx="363" cy="150" r="5.5" fill="#12202e"/>
    <circle cx="362" cy="148" r="2.4" fill="white"/>
    <circle cx="394" cy="146" r="11" fill="white"/>
    <circle cx="391" cy="148" r="5.5" fill="#12202e"/>
    <circle cx="390" cy="146" r="2.4" fill="white"/>
  </g>
</svg>